<svg xmlns="http://www.w3.org/2000/svg" viewBox="0 0 512 512">
  <rect width="512" height="512" rx="108" fill="#0f2e1e"/>
  <rect x="56" y="56" width="400" height="400" rx="64" fill="#124228"/>
  <circle cx="256" cy="256" r="96" fill="#d4bc82"/>
  <path
    fill="#6b4f12"
    d="M256 168c-28 0-50 18-50 42 0 16 10 30 26 38-18 8-30 24-30 44 0 28 24 50 54 50s54-22 54-50c0-20-12-36-30-44 16-8 26-22 26-38 0-24-22-42-50-42zm0 20c12 0 22 8 22 18s-10 18-22 18-22-8-22-18 10-18 22-18zm0 88c16 0 28 10 28 24s-12 24-28 24-28-10-28-24 12-24 28-24z"
  />
</svg>
